<svg xmlns="http://www.w3.org/2000/svg" width="512" height="512" fill="none"><path fill="#131313" fill-opacity=".2" d="M225 419.5c-.01-.39.095-.995.335-1.005 20.165-.5 41.075-.47 61.145-.12.85 1.135-1.43 7.475-.01.825.02-.1.245-.16.525-.205.095 2.39-.3 4.26.605 6.645 3.585 9.46 26.405 10.195 34.64 9.345 6.595-.68 14.375-5.45 13.255-12.995.14.54.76 1.16.505 1.995l-1.5-2.485c8.355.445 18.91 1.1 27.17 2.56 2.81.495 14.625 2.495 15.265 5.285l-.405 1.425c-1.54 2.48-10.495 4.01-13.45 4.56-30.065 5.6-65.635 4.795-96.355 5.13-38.755.425-86.945 1.955-124.84-4.62-4.86-.845-12.12-1.725-15.31-5.675-.565-3.15 10.53-5.075 12.815-5.53 10.54-2.08 22.95-2.605 33.61-3.635l.5 5-1.01.485c4.975 12.07 35.285 8.27 44.76 4.51 6.405-2.54 8.01-4.61 7.74-11.51z"/><path fill="#44261A" d="M172.5 426.5c-2.68-12.995 11.195-22.71 23-22.505l-1.495-29.5c-10.39-.62-19.775.36-29.335-4.415-6.015-3.005-26.01-14.39-29.655-18.845-5.545-6.78-5.19-13.17-5.03-21.505l2.515-47.725c-16.255-2.6-32.24-14.1-40.585-28.165-.625-1.05-1.025-3.16-1.54-3.715-.365-.395-4.45-2-5.825-2.925-6.945-4.675-14.31-16.525-16.405-24.595-2.365-9.12-2.305-20.5 9.8-20.665 5.01-19.535 23.8-7.505 26.06 6.555 2.245-1.615 3.175-3.73 6.21-4.03 11.76-1.175 10.99 15.36 9.35 22.85-.535 2.46-3.65 8.815-3.36 10.175 3.5 7.33 10.705 12.03 17.785 15.505l8.13-142.125c2.445-10.525 10.845-17.5 21.61-18.39 14.695-1.21 30.31.42 44.995.535 40.085.315 81.665-1.03 121.545.455 14.055.525 37.94 6.98 50.56 13.44 10.945 5.605 15.315 16.39 14.185 28.355l-7.04 121.39c17.285 9.53 27.26 22.91 32.985 41.625.74 2.42.745 5.165 1.51 7.49 1.365 4.15 4.335 7.735 5.775 12.725 3 10.38 4.94 35.4-12.51 30.06-6.29 9.02-17.545 1.02-17.24-8.065-20.3 3.345-11.34-22.465-4.195-31.24-1.795-6.58-3.655-13.905-9.3-18.26l-3.645 60.61c-6.005 23.6-20.75 24.72-41.59 24.87-9.425.07-18.855-.01-28.27.02l2.96 26.165c11.615 3.275 17.925 7.385 21.04 19.33 3.09 5.845-3.44 11.13-8.92 13.05-8.39 2.945-28.94.775-36.09-4.39-4.9-3.54-4.595-6.64-3.49-11.66l-.7-1.065q.196-20.265-3.365-40.365l-60.54-1.33c-.205 0-.42.045-.425.165-.495 12.25.94 24.87 3.325 36.75.81 2.525.71 4.635-.295 6.345 2.4 2.475.34 7.725-2.285 9.78-8.765 6.85-35.165 8.33-44.99 3.585-2.16-1.045-6.615-3.87-5.225-6.365z"/><path fill="#C7592F" d="M365 271.5c-1.845.465-2.315 2.93-1.87 4.625.855 3.275 10.525 6.07 13.355 8.145l1.04 1.96c-1.765 19.6-.86 40.58-3.035 60.015-3.705 33.115-39.655 20.84-62.725 23.245-2.28-.435-1.965-3.625-2.265-5.485h18.75c9.89 0 19.71-10.735 20.695-20.305l12.86-226.86-2.3-8.835c11.305 3.945 26.155 5.505 27.515 20.23L380 253l-9.72-2.98c-2.415.605-3.175 1.805-3.775 3.98.54 5.465.305 11.125-.305 16.65l-1.195.85z"/><path fill="#E97F4D" d="M365 271.5c1.255-5.365.125-12.495 1.5-17.5.7 4.405 2.725 3.28 5.525 4.225 18.44 6.235 34.09 19.195 40.485 38.015 1.54 4.53 1.49 8.87 2.62 12.88.47 1.665 2.93 4.345 3.81 6.19 3.6 7.53 5.89 18.885 1.565 26.44l-2.93-.575c-.01-2.59.325-9.7-2.935-10.6-5.155-1.425-1.995 12.615-5.945 14.4-5.49-1.485-.195-20.88-7.675-17.73l-5.99 6.06-1.055-.52c-1.74-2.49 2.695-12.56 4.32-15.245.905-1.49 3.455-3.66 3.695-4.805.79-3.785-2.365-12.805-4.055-16.415-3.49-7.45-9.62-13.625-16.47-18.03-2.96-1.9-13.395-7.565-16.455-6.795zM292.5 382q2.401-1.221 5.965-.875 3.509-1.026 6.035-.125c1.29 9.145 2.3 18.275 2.745 27.505.805 1.625 7.015 1.735 9.155 2.345 4.735 1.345 16.48 9.755 10.36 14.66-4.65 3.725-26.095 2.37-30.73-1.29-3.265-2.58-1.535-3.895-1.51-6.95.1-12.11-.725-23.275-2.02-35.27M213.5 382.5c.05 4.575.12 9.7.51 14.24.595 7.02 3.13 15.06 3.48 21.52.265 4.87-1.02 5.59-5.59 6.89-6.16 1.75-24.19 2.98-29.895.6-7-2.92 1.635-11.01 5.86-12.635 3.765-1.45 13.995-1.41 15.12-2.38 2.145-1.845-.675-11.4-.975-14.49-.505-5.225-.51-10.5-.505-15.745q1.605-.765 4.005.18l7.38.675.615 1.145z"/><path fill="#C7592F" d="m281.929 363.07 1.07 5.93-61.46-1.815.455-5.69zM201.5 380.5c0-6.705.275-13.335 1-20l11.505.5c-.055 7.185-.58 14.31-.505 21.505-3.935-.925-8.35-.075-12-2zM304.5 381c-3.625 1.055-8.225 1.6-12 1-.665-6.165-1.6-12.365-2.5-18.5h11.25c1.94 5.435 2.43 11.665 3.25 17.5M194.505 367.005c-11.52-.2-23.975.345-33-7.995l32.67 1.07.84 1.17-.51 5.76z"/><path fill="#E97F4D" d="M161.87 100.62c11.605-1.79 30.14.28 42.36.395 46.21.44 92.665-.145 138.765 1.735 10.785 4.235 10.8 13.485 10.525 23.515-.58 21.26-2.885 42.71-4.04 63.96-2.65 48.75-3.44 99.615-7.99 148.01-1.9 20.24-9.71 18.575-26.725 18.24-52.5-1.04-106.735-1.73-159.055-4.98-15.71-.975-18.55-6.63-18.23-21.77.26-12.27 1.89-24.695 2.54-36.96 3.13-59.01 6.07-118.02 9.49-177.01.57-7.15 4.83-13.975 12.365-15.135z"/><path fill="#FD8A79" d="M331.695 231.81c15.07 17.935-16.655 33.76-26.885 16.13-9.535-16.435 15.03-30.24 26.885-16.13M172.895 220.65c10.63-.865 23.155 9.765 17.31 20.805-5.455 10.31-20.72 11.58-27.915 2.5-7.8-9.845-1.51-22.32 10.605-23.305"/><path fill="#44261A" d="m226.365 225.1 3.875 1.41c2.145 14.7 22.68 19.565 30.975 7.455 2.12-3.1 1.65-8.51 6.92-7.37 7.415 1.605.865 12.8-2.36 15.925-10.185 9.87-27.39 9.04-37.285-.76-3.745-3.71-9.47-14.09-2.12-16.665zM294.87 152.62c7.725-1.36 18.87 4.475 18.655 13.15l-.49 1.515c-5.16 3.13-8.09-4.48-14.015-5.555-3.38-.615-8.83 1.74-9.49-2.515l.335-3.595c.575-1.265 3.655-2.755 5.005-2.995zM198.37 150.62c4.575-.715 11.375.395 10.02 6.515-.92 4.17-6.45 1.375-9.925 2.085-4.355.89-7.98 6.4-11.195 5.77-4.605-.9-1.04-6.945.96-9.01s7.355-4.925 10.14-5.36M295.38 185.63c7.325-.95 14.3 5.655 16.48 12.255 3.41 10.315-.02 29.135-13.11 30.615-26.135 2.95-23.815-40.215-3.37-42.87M199.38 184.63c22.99-3.41 23.65 38.52 3.87 40.87-25.375 3.015-23.415-37.97-3.87-40.87"/><path fill="#E97F4D" d="m126.5 258 .715 1.17a43 43 0 0 0-2.765 11.405l-.95.93c-8.17-3.48-17.65-10.11-22.7-17.55-1.715-2.525-3.38-8.13-4.575-9.425-1.295-1.41-6.425-3.025-8.68-4.82-6.265-5-14.84-19.71-12.935-27.85.64-2.38 2.935-2.87 4.86-1.575 2.34 1.575 1.695 8.255 5.905 9.145 7.545 1.35-1.995-15.995.91-18.895 5.02-3.3 9.05 5.665 10.445 9.49 1.17 3.21 2.365 14.065 8.05 11.005l6.475-9.015c4.25 6.96.385 16.93-3.665 23.36 1.335 10.1 10.41 17.92 18.915 22.63z"/><path fill="#C7592F" d="M126.5 258c2.2 1.22 4.515 2.325 6.93 3.07L133 274.5c-3.44-.045-6.46-1.705-9.495-3-.415-4.385 1.895-9.23 3-13.5z"/><ellipse cx="206.75" cy="198.5" fill="#FDF6E6" rx="4.25" ry="5.5"/><ellipse cx="302.75" cy="200.5" fill="#FDF6E6" rx="4.25" ry="5.5"/></svg>