<svg xmlns="http://www.w3.org/2000/svg" width="512" height="512" fill="none"><path fill="#131313" fill-opacity=".2" d="M335.146 416.231c4.986-1.217 11.623.086 16.832.907 8.103 1.287 16.371 2.938 23.578 7.217 2.778 4.55-2.323 6.635-5.613 7.937-25.389 10.022-79.312 8.581-107.298 8.658-23.383.062-47.235.326-70.69-1.48-8.997-.69-48.007-4.147-52.733-10.775-4.278-5.805 8.297-8.596 12.085-9.619 6.587-1.783 13.405-2.403 20.071-3.628-7.748 21.929 30.252 19.115 40.966 15.72 9.906-3.139 13.102-7.968 11.702-18.82h59.876c.043-1.287-.029-2.589.007-3.876 2.229 6.193-1.393 13.542 2.878 18.999 8.038 10.262 42.207 13.03 49.371 1.876 3.362-5.233 1.739-8.341-1.032-13.123z"/><path fill="#44261A" d="M154.056 93h165.218c20.771.341 31.998-.643 51.485 8.635 15.735 7.503 26.904 14.813 24.299 35.958l-6.5 123.2c9.812 11.875 17.575 26.688 21.413 42.098 1.436 5.759 1.392 11.634 2.532 16.657 1.35 5.938 5.606 11.402 6.321 18.79.981 10.162-1.855 32.95-15.498 24.633-7.929 6.845-15.1 1.24-15.54-8.72l-7.172-1.581c-1.991 6.635-8.333 11.27-14.415 12.82-17.063 4.357-36.694 1.993-54.14 2.682l4.466 36.284c7.525 1.729 14.423 4.543 18.622 11.775 2.77 4.774 4.393 7.883 1.031 13.123-7.171 11.162-41.333 8.387-49.37-1.876-4.271-5.457-.65-12.805-2.879-18.999.346-13.402-3.571-27.618-4.372-41.027l-60.561-1.605c-.527 15.813 3.074 31.098 5.058 46.516 1.392 10.852-1.804 15.681-11.703 18.82-10.714 3.395-48.714 6.209-40.965-15.72 2.72-7.689 14.487-10.34 20.836-12.844l-4.235-37.547c-10.865-1.364-22.012.046-32.856-.744-32.568-2.349-23.527-27.82-24.242-53.407-5.591-1.984-11.962-6.534-16.168-10.922-1.984-2.069-3.867-6.092-5.728-7.797-1.999-1.83-4.228-2.039-6.515-4.628-7.807-8.829-10.584-37.284 4.675-38.803l-1.414-13.154c-18.29 5.023-24.87 2.364-22.15-18.758.91-7.046 6.97-39.904 10.57-43.679 3.889-4.077 9.92-1.504 13.304 2.077 4.379 4.635 20.959 36.121 21.32 42.268.606 10.371-8.644 13.813-16.551 15.007l2.511 15.541c2.72-.465 4.711 1.279 6.543 1.481 1.321.147 2.778-.861 4.82-.605 2.467.31 4.076 2.465 6.327 2.953.123-18.2.159-36.477.7-54.67.743-25.331.686-54.763 3.009-79.707 1.111-11.914 6.06-22.37 17.943-24.517zm-.916 8.705c-8.449 3-9.105 12.177-9.899 20.37-2.027 21.03-1.45 44.57-2.15 65.902-1.566 47.748-3.441 96.295-3.665 144.113-.072 15.518 1.183 22.215 16.998 23.657 35.821 3.256 74.961 1.659 111.122 2.31 20.901.38 45.922 3.628 66.368 1.604 17.229-1.705 13.254-20.734 14.019-33.772 3.838-65.321 8.109-132.959 8.715-198.372.101-10.868.043-23.681-12.626-25.254l-188.89-.566zm215.916 156.398c-1.977-1.333-4.971-3.906-2.929-6.635 2.525-6.007 15.007 5.38 15.916 4.302l5.764-126.719c-1.334-14.138-17.654-18.727-28.123-22.874 3.377 11.077 2.417 25.006 2.193 36.842-1.053 55.554-4.307 114.108-7.214 169.755-.556 10.58-.7 33.478-3.983 42.229-.541 1.442-1.493 2.457-2.532 3.48 10.346.287 25.41.365 27.805-13.534 2.331-13.533.772-29.935 2.439-43.748-.916-8.108-14.329-15.821-14.992-18.851-.578-2.628 2.446-5.69 4.949-4.868 12.092 7.821 23.657 27.036 24.509 42.26.44 7.883-1.501 5.674-4.611 10.519-3.066 4.782-5.165 9.41-3.694 15.456l1.847.387 3.362-6.689 3.651.263c2.54 2.876-1.638 20.185 4.747 18.449 2.865-.775 1.58-11.403 5.289-12.271l2.467 1.132 1.386 9.154 1.457.031c4.747-6.433 3.788-15.96 1.45-23.308-2.179-6.844-2.922-7.751-4.444-15.379-4.481-22.463-10.895-42.779-29.552-55.84-2.236-1.566-5.389-2.364-7.157-3.55zm-248.383-36.632c.888-1.155.888-2.434.765-3.837-.289-3.488-15.324-32.277-17.994-35.765-.873-1.139-1.904-2.728-3.52-2.488-2.172.953-5.426 18.611-6.14 22.114-.989 4.837-5.101 23.844-3.586 27.161l1.602 1.411 11.717-2.217c1.06-1.287-4.214-10.774 1.277-11.456 4.271-.83 4.718 4.929 5.274 8.363l10.598-3.271zm-7.02 34.315c-3.023-.07-6.248-.582-8.275 2.341-5.628 10.534 1.154 34.648 15.1 24.75 5.173-9.193-5.418-8.162-6.659-12.162-1.298-4.201-.801-10.596-.166-14.929m15.151 17.82v-12.014c0-7.574-13.246-4.853-7.763 5.627zm2.72 2.496-2.713-1.721c1.934 8.852-1.666 16.464-10.107 18.611l11.204 9.271c1.45.225.924-.054 1.061-1.124.894-7.333.057-17.41.555-25.037m65.099 107.573c.931 8.286 2.864 16.712 2.532 24.82-1.5 3.232-22.719 3.674-20.966 13.154.744 1.659 4.344 2.628 5.996 2.907 6.356 1.085 28.996 1.403 32.553-4.922 1.731-3.078-2.128-18.402-2.691-23.286-.808-7.045-1.14-14.122-1.551-21.199-.159-2.69.158-5.434 0-8.139l-1.083-1.938H195.18c-.505 6.286.75 12.433 1.443 18.603m92.349 0c1.443 12.534 2.027 25.207 2.836 37.648 10.353 8.597 26.326 9.085 38.166 4.085 1.933-11.634-16.594-11.666-19.264-15.867-2.121-3.341-3.614-23.982-4.422-29.742-.578-4.1-1.119-8.263-1.443-12.402h-18.037c-.094 5.511 1.544 10.899 2.164 16.278"/><path fill="#C7592F" d="M368.334 277.482c-2.503-.821-5.526 2.24-4.949 4.868.664 3.023 14.076 10.736 14.992 18.851-1.667 13.821-.101 30.215-2.438 43.749-2.396 13.898-17.453 13.82-27.806 13.534 1.039-1.023 1.991-2.039 2.532-3.481 3.283-8.743 3.434-31.648 3.983-42.229 2.907-55.647 6.161-114.2 7.215-169.754.223-11.836 1.19-25.766-2.194-36.842 10.476 4.147 26.796 8.735 28.123 22.874l-5.764 126.719c-.909 1.077-13.391-10.317-15.916-4.302-2.042 2.72.952 5.302 2.929 6.635l-.721 19.378z"/><path fill="#E97F4D" d="M369.056 258.104c1.767 1.186 4.92 1.984 7.157 3.55 18.657 13.061 25.071 33.377 29.551 55.841 1.523 7.627 2.266 8.534 4.445 15.378 2.337 7.341 3.297 16.867-1.45 23.309l-1.458-.031-1.385-9.155-2.468-1.131c-3.701.868-2.424 11.495-5.288 12.27-6.385 1.729-2.208-15.572-4.747-18.448l-3.651-.264-3.362 6.69-1.847-.388c-1.479-6.046.628-10.673 3.694-15.456 3.109-4.845 5.05-2.636 4.61-10.519-.851-15.223-12.416-34.439-24.508-42.26l.721-19.378zM196.623 383.675c0-3.069-.967-1.875 1.269-1.759 4.726.248 9.185.511 13.845-.605l.758-6.162c.411 7.077.743 14.154 1.551 21.2.563 4.883 4.423 20.215 2.691 23.285-3.557 6.317-26.204 6.007-32.553 4.922-1.652-.287-5.252-1.248-5.995-2.907-1.753-9.48 19.465-9.922 20.966-13.154.332-8.108-1.602-16.533-2.532-24.82"/><path fill="#C7592F" d="m212.496 375.149.228 6.346c-4.661 1.116-10.105.661-14.831.421-2.237-.116-1.263-1.302-1.27 1.759-.692-6.17-1.948-12.316-1.443-18.603h16.233l1.083 1.938c.158 2.705-.152 5.449 0 8.139"/><path fill="#E97F4D" d="M306.286 379.8c.808 5.759 2.301 26.401 4.422 29.742 2.677 4.201 21.197 4.232 19.264 15.867-11.84 4.999-27.813 4.511-38.166-4.085-.808-12.441-1.393-25.107-2.836-37.649-.252-2.744.621-.883 1.855-.837 4.776.179 9.552-.031 14.328.117z"/><path fill="#C7592F" d="M288.972 383.676c-.62-5.38-2.258-10.767-2.164-16.278h18.036c.325 4.139.866 8.302 1.443 12.402l.394 3.415c-4.776-.147-11.079-.198-15.855-.376-1.854.837-2.107-1.907-1.854.837"/><path fill="#B29E81" d="m120.673 221.471-10.599 3.271c-.555-3.434-1.003-9.201-5.274-8.364-5.49.682-.216 10.17-1.277 11.456l-11.717 2.217-1.601-1.411c-1.516-3.317 2.597-22.323 3.585-27.16.715-3.504 3.968-21.161 6.14-22.115 1.609-.232 2.641 1.349 3.521 2.488 2.669 3.489 17.705 32.277 17.994 35.765.115 1.411.115 2.682-.765 3.837z"/><path fill="#E97F4D" d="M113.652 255.786c-.635 4.34-1.133 10.735.166 14.929 1.298 4.193 11.832 2.976 6.659 12.162-13.953 9.898-20.735-14.224-15.1-24.75 2.034-2.923 5.259-2.411 8.275-2.341"/><path fill="#C7592F" d="M131.522 276.103c-.491 7.627.339 17.704-.556 25.036-.13 1.07.397 1.357-1.06 1.124l-11.205-9.27c8.434-2.147 12.034-9.759 10.108-18.611zM128.803 273.606l-7.763-6.387c-5.483-10.48 7.763-13.201 7.763-5.627z"/><path fill="#E97F4D" d="m153.139 101.705 188.89.566c12.669 1.573 12.727 14.379 12.626 25.254-.599 65.413-4.878 133.051-8.716 198.372-.765 13.038 3.211 32.075-14.018 33.773-20.447 2.023-45.475-1.233-66.369-1.605-36.153-.651-75.3.946-111.122-2.31-15.814-1.442-17.07-8.131-16.998-23.657.224-47.818 2.1-96.365 3.665-144.113.7-21.331.123-44.872 2.151-65.902.793-8.201 1.442-17.37 9.898-20.37zm36.817 56.608c-3.341.496-10.692 3.155-11.255 7.333-1.104 8.224 9.163 1.449 11.847 1.062 5.136-.737 12.957 3.705 11.832-5.085-.852-4.674-9.12-3.806-12.424-3.31m95.588 9.681c1.775 1.915 5.123.008 7.388.125 5.332.271 7.338 2.93 11.616 5.495 1.955.31 3.55-.573 3.903-2.767 1.429-8.883-16.464-14.069-22.344-9.232-1.58 1.395-1.991 4.837-.563 6.372zm-92.681 24.386c-22.127 1.76-16.875 51.415 6.205 40.834 16.5-7.565 11.205-42.214-6.205-40.834m98.799 2.349c-17.741 3.48-16.377 43.369 3.341 42.392 21.478-1.062 18.816-46.741-3.341-42.392m-66.361 37.912c-8.095 4.077-.44 15.797 4.56 19.595 9.747 7.403 24.948 5.627 32.012-5.038 1.811-2.729 5.779-11.131 2.951-13.922-4.488-4.41-6.429 4.93-7.727 7.24-7.821 14.007-27.308 9.139-28.658-6.906l-3.145-.969z"/><path fill="#FD8A79" d="M173.79 262.85c7.687 0 13.918-6.694 13.918-14.952s-6.231-14.952-13.918-14.952-13.917 6.694-13.917 14.952 6.231 14.952 13.917 14.952M311.524 266.291c7.686 0 13.917-6.694 13.917-14.952s-6.231-14.952-13.917-14.952c-7.687 0-13.918 6.694-13.918 14.952s6.231 14.952 13.918 14.952"/><path fill="#44261A" d="m225.302 232.641 3.146.969c1.349 16.046 20.829 20.913 28.657 6.907 1.291-2.31 3.239-11.658 7.727-7.24 2.828 2.783-1.14 11.185-2.951 13.921-7.063 10.666-22.265 12.441-32.012 5.039-5-3.798-12.655-15.518-4.56-19.596zM285.545 167.994c-1.421-1.535-1.017-4.976.563-6.371 5.88-4.837 23.772.348 22.344 9.231-.354 2.194-1.948 3.078-3.903 2.768-4.279-2.566-6.285-5.225-11.616-5.496-2.266-.116-5.613 1.791-7.388-.124zM189.957 158.313c3.311-.488 11.572-1.364 12.424 3.31 1.125 8.798-6.688 4.348-11.832 5.085-2.684.387-12.951 7.154-11.847-1.062.563-4.178 7.914-6.837 11.255-7.333M291.663 194.729c22.156-4.349 24.819 41.33 3.34 42.392-19.718.977-21.074-38.912-3.34-42.392m5.05 6.929c-3.773 1.14-4.141 8.62-.519 10.31 8.975 4.193 8.484-12.712.519-10.31"/><path fill="#FDF6E6" d="M296.713 201.658c7.965-2.402 8.456 14.503-.52 10.31-3.621-1.69-3.254-9.17.52-10.31"/><path fill="#44261A" d="M192.864 192.38c17.409-1.387 22.704 33.269 6.204 40.834-23.08 10.581-28.332-39.074-6.204-40.834m4.292 6.938c-7.251 1.426-2.186 17.828 4.849 9.162.815-2.527.801-6.821-1.494-8.426-1.039-.759-2.114-.976-3.355-.736"/><path fill="#FDF6E6" d="M197.158 199.317c1.241-.24 2.316-.023 3.354.737 2.295 1.604 2.316 5.898 1.494 8.425-7.042 8.666-12.099-7.735-4.848-9.162"/></svg>