<svg xmlns="http://www.w3.org/2000/svg" width="512" height="512" fill="none"><path fill="#131313" fill-opacity=".3" d="m224.54 414.163 1.891-2.395c16.654-.472 33.083 1.139 49.699.775l1.891 2.395c-.093 5.929-.891 10.571 4.262 14.725 12.051 9.71 66.37 10.477 51.537-13.95 7.346.519 15.445 1.131 22.652 2.534 8.944 1.752 30.783 7.641 10.238 14.469-20.336 6.758-62.092 7.967-84.396 8.602-38.656 1.101-101.995 2.038-138.651-7.106-3.55-.884-18.453-4.689-12.082-10.339 3.82-3.386 28.55-8.005 34.045-7.842 1.604.046.472 1.092 1.573 2.007-.651 3.015-.527 5.2.86 8.06 6.417 12.624 42.012 10.16 51.769 2.332 5.146-4.13 5.122-8.052 4.719-14.267z"/><path fill="#44261A" d="M150.918 93.321h97.647c38.765.295 88.619-3.735 124.191 10.269 14.879 5.859 29.519 11.082 27.744 30.457l-7.013 97.988 31.983 4.836c9.927 2.511 5.316 21.785 5.192 29.62-.186 11.834 1.093 29.069-.79 40.283-.535 3.178-3.154 3.906-3.666 5.634-.752 2.55.116 6.642-.349 9.726-2.371 15.585-25.434 25.931-39.33 19.173-1.379 11.121-4.378 22.25-13.174 29.845-15.988 13.825-41.036 6.254-60.457 8.129v24.8c7.518 1.681 16.693 4.657 20.925 11.624 14.841 24.428-39.478 23.653-51.536 13.95-5.154-4.154-4.364-8.788-4.263-14.725.186-11.756 2.069-23.869-.077-35.571l-56.504-1.628c-.047 7.339.178 14.772.79 22.08.396 4.665 2.031 9.904 2.317 14.344.396 6.216.427 10.137-4.719 14.268-9.757 7.827-45.352 10.292-51.769-2.333-1.387-2.859-1.511-5.045-.86-8.06 2.077-9.594 13.299-14.871 22.443-15.53l-2.286-25.551c-8.47-.892-18.142-.024-26.388-1.899-7.804-1.775-30.41-13.849-34.711-20.312-5.712-8.587-3.364-18.592-3.619-28.163-40.555-18.584-27.869-59.232 2.58-80.334l6.433-132.29c1.48-11.756 7.16-19.056 19.273-20.637zm176.695 158.096c5.968-3.231 11.989-6.463 18.135-9.377l1.216-1.883c1.287-37.656 6.053-76.25 6.262-113.86.047-8.812-.689-19.165-10.462-22.165-52.009-.728-104.506-1.875-156.546-2.325-7.789-.069-32.425-1.294-38.183.644-5.758 1.937-8.277 9.78-8.765 15.259-3.736 41.345-3.744 86.201-5.371 127.926-1.139 29.217-3.937 60.929-3.937 89.836 0 5.239.543 10.71 3.58 15.081 2.294 2.557 9.037 4.254 12.439 4.611 11.849 1.255 26.419 1.17 38.617 1.682 41.942 1.759 88.697 4.619 130.313 3.758 7.975-.162 18.794-.279 23.552-7.656-12.787-3.744-30.519-4.116-42.609-8.944-3.619-1.441-5.734-3.394-6.649-7.3 1.217-17.794-.907-37.168.403-54.706.961-12.826 5.44-13.244 15.531-18.956 7.254-4.107 15.112-7.641 22.474-11.625m58.124-20.916 6.634-102.344c-2.163-12.609-24.242-16.879-34.526-20.87 2.674 4.766 3.139 10.493 3.123 15.91-.069 31.921-4.309 65.509-5.479 97.585-.194 5.247.806 10.959-.744 15.911.969.806 12.702-8.006 16.089-8.37 2.433-.264 14.283 2.836 14.903 2.185zm30.991 13.174-43.786-7.052c-5.045.217-11.571 6.634-16.67 8.207l43.011 8.192 17.445-9.339zm-60.441 69.741c16.174-8.928 33.03-17.096 48.754-26.807 3.674-2.27 14.345-8.571 16.748-11.152.55-.589 1.922-2.952 1.922-3.503v-21.699c0-.147 1.612-1.426.395-1.93l-70.732 39.377-55.985-9.935-.698 26.272 52.614 10.927v-13.562c0-.783.62-5.945.798-6.952.636-3.65 5.913-3.828 6.649-.411.248 1.147-.472 1.666-.472 1.938v17.437zm33.317-54.241-44.453-8.308-38.462 20.692 44.476 8.517zm-265.819 58.108c-1.263-5.495 1.775-14.105.752-18.964-.628-3.007-5.386-4.495-5.386-10.865s4.789-7.897 5.394-10.873c1.124-5.495-.984-13.74.79-19.739-21.839 15.492-32.068 48.127-1.542 60.441zm299.143-32.534-65.881 37.571-1.535 23.645c.783 1.077 22.568-11.625 23.296-12.733 2.387-3.65-1.759-7.448 4.317-11.973.915-.682 2.891-.62 3.232-1.016 1.178-1.371.643-4.936 5.208-8.354 3.146-2.356 6.347-2.356 8.083-3.542 1.116-.759 1.286-2.797 2.34-3.859 6.456-6.494 13.547-2.542 20.157 1.17l.775-20.916zm-35.634 44.174c5.038 12.222 25.629 4.472 29.752-4.743 3.17-7.091 1.139-15.515-7.835-14.872l-2.852 7.285-10.625 2.604-.682 7.789zm-90.68-17.057v24.799l50.699 10.772c.93-.325 1.039-1.015 1.217-1.86 1.341-6.254-1.473-15.701.829-22.404l-52.753-11.299zm32.162 56.573c-4.604.62-10.362-.457-15.112 0v3.1c18.855-2.139 48.095 7.006 59.999-13.236 2.758-4.697 3.665-10.191 4.704-15.446-9.587 6.278-19.886 13.446-32.038 12.539-1.527 6.41-11.416 12.214-17.553 13.043m-142.202-3.882-31.789-.38c9.594 5.324 21.203 3.828 31.789 5.037zm8.517 17.057c.589 6.758 3.224 17.15 3.093 22.87-.179 7.657-7.781 5.44-13.183 6.951-4.146 1.163-11.717 5.665-9.943 10.734 2.209 6.3 39.718 6.634 41.702-2.992.945-4.58-1.736-15.546-2.286-20.909-.248-2.425.201-4.936-.016-7.354v-25.582l-20.157-.775c-.442 5.75.287 11.361.783 17.057zm82.156-14.732-55.031-1.55v3.882l55.031 1.55zm9.292 17.057c1.752 10.927-2.317 25.807-.814 36.075.272 1.837.558 2.302 1.961 3.465 6.75 5.603 32.464 5.091 40.601.666 1.171-11.175-19.994-10.54-22.831-13.779-1.735-1.992-.317-8.401-.317-11.702l.782-30.232-21.699-.76 2.325 16.267z"/><path fill="#C7592F" d="M356.287 313.416v-17.437c0-.272.713-.799.473-1.938-.736-3.417-6.014-3.239-6.649.411-.178 1.015-.798 6.177-.798 6.952v13.562l-52.614-10.927.698-26.272 55.984 9.935 70.733-39.377c1.224.504-.395 1.783-.395 1.93v21.699c0 .551-1.372 2.914-1.922 3.503-2.403 2.581-13.074 8.882-16.748 11.152-15.732 9.711-32.58 17.871-48.754 26.807zM296.613 311.866l52.753 11.299c-2.302 6.703.512 16.15-.829 22.405-.178.844-.287 1.534-1.217 1.86l-50.699-10.773v-24.799z"/><path fill="#C7592F" d="m389.603 259.175-38.432 20.901-44.476-8.517 38.455-20.692zM422.927 284.75l-.775 20.916c-6.61-3.712-13.701-7.664-20.157-1.17-1.054 1.062-1.232 3.1-2.34 3.859-1.736 1.186-4.937 1.186-8.083 3.542-4.565 3.418-4.03 6.983-5.208 8.354-.341.396-2.317.334-3.232 1.016-6.076 4.518-1.93 8.323-4.317 11.973-.728 1.116-22.513 13.81-23.295 12.733l1.534-23.645 65.881-37.571z"/><path fill="#E97F4D" d="M123.786 317.283c-30.519-12.315-20.289-44.957 1.542-60.441-1.775 5.998.333 14.244-.79 19.739-.605 2.968-5.394 4.494-5.394 10.873s4.758 7.858 5.386 10.865c1.015 4.867-2.023 13.469-.752 18.964z"/><path fill="#C7592F" d="M328.776 368.44c6.138-.83 16.035-6.634 17.554-13.043 12.144.914 22.451-6.254 32.037-12.54-1.038 5.255-1.945 10.749-4.704 15.446-11.904 20.242-41.144 11.098-59.991 13.236v-3.099c4.743-.458 10.501.62 15.104 0M416.728 243.675l-17.445 9.338-43.012-8.191c5.1-1.573 11.625-7.998 16.67-8.207l43.787 7.052z"/><path fill="#E97F4D" d="m387.294 328.923 7.758-1.938.681-7.788 10.625-2.604 2.852-7.285c8.982-.636 11.005 7.781 7.835 14.872-4.122 9.214-24.714 16.956-29.751 4.743M195.091 381.614h18.592c-.659 3.209.55 6.665.783 9.3.209 2.418-.241 4.929.015 7.355.55 5.362 3.232 16.328 2.286 20.909-1.984 9.625-39.493 9.292-41.701 2.991-1.775-5.061 5.797-9.563 9.943-10.734 5.401-1.518 13.004.698 13.182-6.951.132-5.719-2.511-16.112-3.092-22.87z"/><path fill="#C7592F" d="M195.091 381.614c-.496-5.696-1.224-11.299-.783-17.057l20.158.775v25.582c-.233-2.635-1.45-6.092-.791-9.3h-18.592z"/><path fill="#E97F4D" d="M305.139 398.663c0 3.302-1.418 9.711.318 11.702 2.829 3.24 24.001 2.604 22.831 13.78-8.129 4.432-33.851 4.944-40.601-.667-1.403-1.162-1.69-1.627-1.961-3.464-1.503-10.269 2.565-25.148.814-36.075l17.832-.768.76-9.299c.015 8.253.007 16.538.007 24.791"/><path fill="#C7592F" d="m286.539 383.939-2.325-16.267 21.699.76-.782 30.232c0-8.254 0-16.538-.008-24.792l.409 9.286-19.001.781zM277.247 366.882v3.89l-55.039-1.55.008-3.883zM186.574 364.557v4.658c-10.586-1.209-22.196.286-31.79-5.038z"/><path fill="#E97F4D" d="M327.611 251.418c-1.302-5.177-.705-8.634-4.619-12.818-10.338-11.052-28.713-3.062-27.155 12.43.682 6.781 5.262 7.812 9.3 12.012-10.091 5.712-14.57 6.131-15.531 18.956-1.31 17.546.814 36.913-.403 54.706.914 3.906 3.03 5.859 6.649 7.301 12.09 4.828 29.822 5.2 42.609 8.943-4.759 7.37-15.577 7.486-23.552 7.657-41.616.86-88.371-2-130.313-3.759-12.198-.511-26.768-.426-38.617-1.682-3.402-.356-10.145-2.053-12.439-4.611-3.038-4.371-3.58-9.842-3.58-15.081 0-28.914 2.798-60.627 3.937-89.836 1.627-41.725 1.635-86.58 5.37-127.926.496-5.479 3.038-13.321 8.766-15.259 5.727-1.937 30.387-.713 38.183-.643 52.04.449 104.537 1.596 156.546 2.325 9.772 2.999 10.509 13.353 10.462 22.164-.209 37.61-4.967 76.204-6.262 113.86l-1.216 1.884c-6.146 2.913-12.168 6.145-18.135 9.377M175.188 158.66c-2.255 2.527-2.201 7.254 1.651 7.456 2.076.108 8.245-3.433 11.772-3.767 4.634-.434 13.267 2.1 7.563-6.959-3.906-2.488-17.693-.426-20.986 3.263zm107.273-3.154c-4.17.736-6.812 4.069-4.495 8.006 7.788-.023 13.647.798 19.847 5.804 2.798.264 5.386-3.549 3.821-6.223-3.937-5.432-12.555-8.749-19.181-7.587zm-98.431 37.199c-20.188 3.728-13.384 50.459 8.998 36.889 15.546-9.431 10.051-40.407-8.998-36.889m98.423 1.55c-19.235 3.557-14.918 49.196 7.711 39.478 17.577-7.549 11.973-43.12-7.711-39.478m-108.094 50.258c0-8.262-6.696-14.95-14.95-14.95s-14.949 6.696-14.949 14.95 6.696 14.949 14.949 14.949 14.95-6.696 14.95-14.949m39.88-13.121c-4.503 1.349-2.805 9.223-1.186 12.516 7.898 16.066 39.4 14.012 43.074-3.906 1.085-5.293-.271-11.756-5.929-6.703-2.588 11.415-12.965 16.677-23.869 12.058-9.145-3.874-5.348-15.987-12.098-13.965z"/><path fill="#C7592F" d="M385.735 230.501c-.628.651-12.478-2.442-14.903-2.186-3.395.364-15.128 9.176-16.089 8.37 1.55-4.944.55-10.664.744-15.91 1.17-32.077 5.417-65.657 5.479-97.586.008-5.417-.457-11.144-3.123-15.91 10.292 3.991 32.363 8.261 34.526 20.87l-6.634 102.344z"/><path fill="#FD8A79" d="M327.611 251.418c-7.362 3.983-15.22 7.517-22.474 11.624-4.038-4.2-8.618-5.231-9.3-12.012-1.558-15.492 16.817-23.482 27.156-12.431 3.913 4.185 3.316 7.642 4.618 12.819M159.409 259.462c8.257 0 14.95-6.693 14.95-14.949s-6.693-14.95-14.95-14.95-14.949 6.694-14.949 14.95 6.693 14.949 14.949 14.949"/><path fill="#44261A" d="M214.239 231.392c6.751-2.023 2.953 10.09 12.098 13.965 10.896 4.619 21.281-.644 23.869-12.059 5.658-5.053 7.014 1.41 5.929 6.704-3.673 17.917-35.176 19.971-43.074 3.906-1.619-3.294-3.316-11.168 1.186-12.516zM282.462 155.506c6.626-1.17 15.243 2.147 19.18 7.587 1.566 2.674-1.023 6.487-3.82 6.223-6.208-5.006-12.067-5.828-19.848-5.805-2.317-3.929.326-7.269 4.495-8.005zM175.188 158.66c3.293-3.697 17.072-5.75 20.986-3.263 5.704 9.06-2.929 6.518-7.564 6.96-3.526.333-9.687 3.882-11.772 3.766-3.851-.201-3.906-4.929-1.65-7.455zM282.453 194.255c19.685-3.642 25.296 31.937 7.711 39.478-22.637 9.718-26.946-35.921-7.711-39.478m4.286 8.548c-2.434 2.154-2.534 8.261 1.31 9.532 7.618 2.527 8.393-9.664 2.704-10.532-1.302-.046-3.014.117-4.014 1"/><path fill="#FDF6E6" d="M286.74 202.803c.999-.883 2.712-1.046 4.014-.999 5.681.868 4.913 13.058-2.705 10.532-3.844-1.271-3.743-7.371-1.309-9.533"/><path fill="#44261A" d="M184.03 192.705c19.049-3.519 24.544 27.457 8.998 36.889-22.382 13.57-29.186-33.162-8.998-36.889m10.083 7.773c-6.479-5.781-12.167 9.78-2.503 9.16 4.448-.287 5.2-6.758 2.503-9.16"/><path fill="#FDF6E6" d="M194.113 200.478c2.689 2.403 1.945 8.866-2.504 9.161-9.664.627-3.975-14.934 2.504-9.161"/></svg>